<svg xmlns="http://www.w3.org/2000/svg" xmlns:xlink="http://www.w3.org/1999/xlink" viewBox="0 0 114.49 140.02"><defs><style>.cls-1{fill:url(#linear-gradient);}.cls-2{fill:#231f20;}.cls-3{fill:url(#linear-gradient-2);}</style><linearGradient id="linear-gradient" x1="74.27" y1="1.84" x2="49.97" y2="139.61" gradientUnits="userSpaceOnUse"><stop offset="0" stop-color="#714d9f"/><stop offset="0.1" stop-color="#663e90"/><stop offset="0.24" stop-color="#5d3385"/><stop offset="0.44" stop-color="#582c7e"/><stop offset="1" stop-color="#572a7c"/></linearGradient><linearGradient id="linear-gradient-2" x1="64.36" y1="1.83" x2="40.37" y2="137.91" gradientUnits="userSpaceOnUse"><stop offset="0" stop-color="#ed2290"/><stop offset="0.8" stop-color="#ed2024"/></linearGradient></defs><title>lock-logoAsset 3</title><g id="Layer_2" data-name="Layer 2"><g id="Layer_4" data-name="Layer 4"><path class="cls-1" d="M108.05,50.22C103.19,44.14,93.3,40.06,83.89,40H74v1.7A18.36,18.36,0,0,0,62.2,55.91c-1.93-9.57-8.81-14.27-16.83-15.54.27-14.73,7.71-26.58,16.83-26.58,7.13,0,13.23,7.24,15.68,17.44h11C85.87,13.32,75.05,0,62.2,0H52.29V2.78C42.26,8.62,35.07,23,34.75,40H31.38v1.27c-6.17,1.66-11.75,4.85-15,8.95C4.76,64.7,10.15,89,21.86,99c9.07,7.7,20.15,16.67,30.43,28.38V140H62.2c12.59-18.25,28.5-31,40.33-41S119.63,64.7,108.05,50.22Z"/><path class="cls-2" d="M67.9,87.84a10.3,10.3,0,1,0-15.27,9v10.91A3.32,3.32,0,0,0,56,111.08h3.31a3.32,3.32,0,0,0,3.32-3.32V96.85A10.3,10.3,0,0,0,67.9,87.84Z"/><path class="cls-3" d="M98.15,50.22c-10-12.52-41.36-16.61-45.86,5.69-1.92-9.55-8.77-14.25-16.76-15.53.26-14.73,7.7-26.59,16.82-26.59C59.48,13.79,65.58,21,68,31.23H79C76,13.31,65.21,0,52.35,0c-15,0-27.21,18.12-27.45,40.52-7.49,1.27-14.58,4.85-18.46,9.7C-5.14,64.7.24,89,12,99c12.09,10.26,27.74,22.79,40.33,41,12.59-18.25,28.51-31,40.34-41S109.72,64.7,98.15,50.22ZM57.27,97.29V108.2a3.32,3.32,0,0,1-3.33,3.32h-3.3a3.32,3.32,0,0,1-3.32-3.32V97.29a10.3,10.3,0,1,1,10,0Z"/></g></g></svg>