<svg xmlns="http://www.w3.org/2000/svg" xmlns:xlink="http://www.w3.org/1999/xlink" viewBox="0 0 147.36 35.55"><defs><style>.cls-1{fill:url(#linear-gradient);}.cls-2{fill:url(#linear-gradient-2);}.cls-3{fill:url(#linear-gradient-3);}.cls-4{fill:url(#linear-gradient-4);}.cls-5{fill:url(#linear-gradient-5);}.cls-6{fill:url(#linear-gradient-6);}.cls-7{fill:url(#linear-gradient-7);}</style><linearGradient id="linear-gradient" x1="75.84" y1="-1.9" x2="72.45" y2="40.84" gradientUnits="userSpaceOnUse"><stop offset="0" stop-color="#714d9f"/><stop offset="0.15" stop-color="#6c4698"/><stop offset="0.66" stop-color="#5c3183"/><stop offset="1" stop-color="#572a7c"/></linearGradient><linearGradient id="linear-gradient-2" x1="27.51" y1="17.54" x2="27.51" y2="34.79" gradientTransform="translate(1.29 -5.83) rotate(4.54)" gradientUnits="userSpaceOnUse"><stop offset="0" stop-color="#5ec6ca"/><stop offset="1" stop-color="#00afce"/></linearGradient><linearGradient id="linear-gradient-3" x1="11.14" y1="8.82" x2="11.14" y2="38.89" xlink:href="#linear-gradient-2"/><linearGradient id="linear-gradient-4" x1="70.13" y1="3.93" x2="70.13" y2="32.02" xlink:href="#linear-gradient-2"/><linearGradient id="linear-gradient-5" x1="54.09" y1="8" x2="54.09" y2="35.56" xlink:href="#linear-gradient-2"/><linearGradient id="linear-gradient-6" x1="118.4" y1="0.04" x2="118.4" y2="31.68" xlink:href="#linear-gradient-2"/><linearGradient id="linear-gradient-7" x1="130.71" y1="9.17" x2="130.71" y2="12.36" xlink:href="#linear-gradient-2"/></defs><title>lovelockchaindotcom_logo_fullAsset 6</title><g id="Layer_2" data-name="Layer 2"><g id="Layer_4" data-name="Layer 4"><path class="cls-1" d="M147.23,22.44a2.15,2.15,0,0,0-1-1.17,2.1,2.1,0,0,0-1.07-.29,2.22,2.22,0,0,0-1.63.74l-.09.1-.31.26-.08.19a2.35,2.35,0,0,0-.37.52l0,0a4.62,4.62,0,0,0,.3-1l.15-.52,0-.13,0-.13a3.51,3.51,0,0,1,.16-.66,9.26,9.26,0,0,0,.31-1.29v-.15a2.29,2.29,0,0,0-.35-1.45,2.3,2.3,0,0,0-.27-.77,2,2,0,0,0-.61-.68l0,0-.54-.63-.52,0,0,0-.28-.08c-.16,0-.34-.07-.54-.1a2.11,2.11,0,0,0-.59-.18,3.69,3.69,0,0,0-.72-.08,2.91,2.91,0,0,0-1.29.29,5.16,5.16,0,0,0-1,.62l-.57.46,0,0,0,0h0a4.46,4.46,0,0,0-1.81-.43h-.27l-.26.06-.08,0a3.65,3.65,0,0,0,.15-.5,3.06,3.06,0,0,0-.12-1.86l-.08-.19-.11-.17a2.78,2.78,0,0,0-1.37-1.05l-.47-.17-.66-.25a3.43,3.43,0,0,0-1-.15l-.31,0H128.2l-.11,1.17a3.57,3.57,0,0,0-.39.81,4.85,4.85,0,0,0-.27,1.31,5.12,5.12,0,0,0,0,1.24s0,0,0,0l-.08.06a2.35,2.35,0,0,0-.81,1.58l-.06.17v0a2.88,2.88,0,0,0-.13.31c-.08.19-.15.38-.22.57l-.26-.24a3.72,3.72,0,0,0-1.56-.82l-.16-.05h-.14a2.7,2.7,0,0,0-.4-.14l-.14,0a3.76,3.76,0,0,0-.94-.47,11,11,0,0,0-1.26-.36l-2.24-.49-.07.88h0l-.09,0a4.48,4.48,0,0,0-.67.28l0,0,0,0a3.23,3.23,0,0,0-.57.45l-.39.23-.35.2-.25.32-.24.32a2.12,2.12,0,0,0-.24.2l-.22.18-.16.23-.21.31-.1.15a5.3,5.3,0,0,0-.36.62c-.19.28-.39.57-.59.88s-.5.78-.73,1.18l-.07.14-.06.14,0,0,0-.06a4.26,4.26,0,0,0-.88-1.36,4.71,4.71,0,0,0-.7-.6,3.18,3.18,0,0,0-1.13-.44,4.13,4.13,0,0,0-.75-.15H110c.09-.15.17-.32.26-.49l.08-.14,0-.15c.08-.25.15-.51.21-.77l0-.14.44-.77a9.44,9.44,0,0,0,.55-1.25l.07-.18a4.08,4.08,0,0,0,.34-.73l0-.1,0-.09a2.78,2.78,0,0,1,.23-.62l0-.08,0-.07a17.48,17.48,0,0,0,.74-2.22,3.6,3.6,0,0,0,.21-1c0-.13,0-.26,0-.41a4.17,4.17,0,0,0,.08-1.05l0-.69-.16-.19a3.3,3.3,0,0,0-.35-.8,2.73,2.73,0,0,0-.95-1,2.49,2.49,0,0,0-1-.36l-.26-.07A3,3,0,0,0,110,7h-.19a3,3,0,0,0-1.81.6l-.46.18-.34.39a3.08,3.08,0,0,1-.24.26,5.12,5.12,0,0,0-.55.58l-.11.13-.09.14,0,.09h0V9.34a3.68,3.68,0,0,0,.28-.91c0-.21.09-.43.12-.64a5.64,5.64,0,0,0,0-.69,3.81,3.81,0,0,0-.18-1.57c0-.15,0-.3,0-.44s-.05-.37-.08-.56l-.06-.45L106,3.7a8.27,8.27,0,0,0-.28-.84l-.07-.19-.11-.17a3.07,3.07,0,0,0-1.23-1.12l-.26-.25L103.69,1a3.42,3.42,0,0,0-.64-.31A4.05,4.05,0,0,0,102,.41l-.22,0a5,5,0,0,0-.76-.2l-.63-.1L99.82,0l-.28.12-.43.06H99a5.66,5.66,0,0,0-2.16,1.15,13.94,13.94,0,0,0-1.28,1.27,5.1,5.1,0,0,0-1,1.17c-.16.25-.33.5-.49.73-.46.61-.88,1.21-1.23,1.78a15.49,15.49,0,0,0-1,1.88c-.54,1.21-1,2.4-1.5,3.56a26.14,26.14,0,0,0-1.18,3.77c-.15.62-.28,1.25-.4,1.86a16.31,16.31,0,0,0-.26,2l-2.12,1-.74-1.75a3.05,3.05,0,0,0,0-.43,3.37,3.37,0,0,0-.08-.59,3.67,3.67,0,0,0-.38-1A3.25,3.25,0,0,0,82.52,15a2.62,2.62,0,0,0-.56-.09l.71-1.18a3.92,3.92,0,0,0,.53-1.18,3.67,3.67,0,0,1,.17-.45l0-.07,0-.07c.07-.19.14-.36.22-.53s.17-.36.28-.55l.1-.18.06-.19L84.54,9l0,0V8.9l.07-.25,0-.14c0-.11.07-.26.11-.42l0-.15V7.79l0-.14v0A2.15,2.15,0,0,0,85,7.07a2.92,2.92,0,0,0,0-.51,3,3,0,0,0,.07-.43,3.58,3.58,0,0,0,0-.71,3.69,3.69,0,0,0-.18-.65l-.18-.42-.15-.13a1.43,1.43,0,0,0-.14-.2,2.9,2.9,0,0,0-1.22-1,7,7,0,0,0-.7-.25l-.34-.13a2.86,2.86,0,0,0-.79-.2l-.48,0a2.5,2.5,0,0,0-1.38.39,4.69,4.69,0,0,0-.54.4,3,3,0,0,0-.78.63l0,0,0,0-.42.52-.06.08-.06.09a8.69,8.69,0,0,0-.51.86c-.09.19-.21.4-.33.62l0,.08,0,.09-.22.5a8.54,8.54,0,0,0-.87,1.67c-.19.49-.37,1-.55,1.46-.41,1-.79,2.07-1.14,3.1s-.67,2.17-.95,3.29l0,.16v0l0,0v.07a5,5,0,0,0-.12.63c0,.21-.11.42-.17.63s-.18.27-.26.41a6.2,6.2,0,0,0,0-1.05,4.26,4.26,0,0,0-.4-1.57,3.14,3.14,0,0,0-1.61-1.43,5.19,5.19,0,0,0-1.71-.46h-.21a8.94,8.94,0,0,0-1.09.11,4.19,4.19,0,0,0-1.21.36,3.2,3.2,0,0,0-1,.58,6.21,6.21,0,0,0-.58.57A13.63,13.63,0,0,0,63,17.15l-.18.28-.08-.09,0-.39-.23-.26a2.61,2.61,0,0,0-.24-.54l0-.89-.59-.2a3.09,3.09,0,0,0-.54-.48l-.36-.23L60,13.87l-.45.14-.27,0-.17,0H59a3.22,3.22,0,0,0-1-.41h0l0,0-.34-.17-.38,0H57.2l-.21,0h-.18a2.31,2.31,0,0,0-1.28.38l-.07,0c.06-.12.1-.25.16-.37.19-.39.37-.79.55-1.19l0-.06,0-.06.44-1.22a1.21,1.21,0,0,1,.1-.16,6.54,6.54,0,0,0,.49-.84l.09-.21,0-.22A3,3,0,0,0,57,7a9,9,0,0,0-.64-.85L56.16,6,56,5.85a6.42,6.42,0,0,0-1.3-.74c-.22-.1-.46-.2-.71-.29a2.2,2.2,0,0,0-1.49-.56h-.1a2.77,2.77,0,0,0-.6.07,4.15,4.15,0,0,0-.69.19,4.84,4.84,0,0,0-.94.53A2.66,2.66,0,0,0,49,6.66,2.32,2.32,0,0,0,49,8a7.8,7.8,0,0,0-.31.72l0,.06V8.8l-.41,1.41q-.26.64-.51,1.32c-.17.47-.34.93-.49,1.38a14.42,14.42,0,0,0-.55,1.6l-.18.66-.17.61a10.65,10.65,0,0,0-.58,1.64c-.12.45-.25.91-.4,1.37a2.1,2.1,0,0,0-.41-.24l-.27-.3h-.89a2,2,0,0,0-.92.22,5.4,5.4,0,0,0,.37-2.11,2.69,2.69,0,0,0-.39-1.65,3.12,3.12,0,0,0-.61-.72l0,0,0,0a5.33,5.33,0,0,0-2-1l-.19-.05h0l-.15,0h-.38l-.25,0h-.3a2.15,2.15,0,0,0-1,.32l-.08,0-.18.1-.48.27,0,0,0,0a8.53,8.53,0,0,0-1.41,1.09l-.93.91a2.67,2.67,0,0,0-.46-1.34l-.31-.43-.48-.23-.09,0A2.77,2.77,0,0,0,31.72,13h-.16l-.2,0a2.43,2.43,0,0,0-.67.24l-.42.1-.36.31a3.57,3.57,0,0,0-.39.39l-.32.22-.24.34-.48.72,0,0,0,0-.25.44a3.36,3.36,0,0,0-.53-1,5.7,5.7,0,0,0-1.36-1.26l-.11-.08-.13-.06a5.19,5.19,0,0,0-.74-.29,1.09,1.09,0,0,1-.19-.08l-.35-.16-.38,0h-.25a2.82,2.82,0,0,0-2.64,1.78,2.94,2.94,0,0,0-.29.85l0,.06,0,.06-.07.09-.33.42-.27.33L20.6,16l-.23-.27a2,2,0,0,0-.07-.26,2.34,2.34,0,0,0-.34-1l-.05-.9-.58-.19a3.65,3.65,0,0,0-.58-.53h0l0,0-.35-.22-.78-.48-.45.15a1.86,1.86,0,0,0-.33,0l-.17,0-.17,0h0l-.07,0a3.13,3.13,0,0,0-1-.42L15,11.63l-.39,0h-.19l-.15,0h-.19a2.33,2.33,0,0,0-1.3.39,3.53,3.53,0,0,0-.32.21l-.07,0-.17.14a8.93,8.93,0,0,1,.41-1c.2-.43.4-.86.59-1.3l0-.05,0-.07.49-1.33a1,1,0,0,1,.12-.22,5.73,5.73,0,0,0,.52-.89l.09-.2.05-.23a3.13,3.13,0,0,0-.45-2.49,10.49,10.49,0,0,0-.69-.92l-.15-.17-.19-.14a7,7,0,0,0-1.38-.79l-.8-.32a2.25,2.25,0,0,0-1.53-.58h-.1a4,4,0,0,0-.63.07A4.56,4.56,0,0,0,7.94,2,5.24,5.24,0,0,0,7,2.5,2.79,2.79,0,0,0,5.8,4.15a2.28,2.28,0,0,0,0,1.39,6.12,6.12,0,0,0-.36.83l0,0,0,.06L4.91,8c-.18.48-.36,1-.55,1.45S4,10.5,3.82,11a16,16,0,0,0-.59,1.73l-.2.72-.19.68a11,11,0,0,0-.63,1.77c-.13.5-.28,1-.44,1.54l0,.11,0,.11c-.21,1.1-.43,2.18-.66,3.21S.58,23,.37,24.1v.1C.23,25,.13,25.81.06,26.63a11.27,11.27,0,0,0,0,2.67l.09.79v1.05a3.94,3.94,0,0,0,.24,1.08,4.63,4.63,0,0,0,.29.64,4.68,4.68,0,0,0,.84,1.38,3.51,3.51,0,0,0,2,1.06,4,4,0,0,0,1.16.14h1a9,9,0,0,0,1-.14q.42-.09.81-.21l.66-.22c.27-.09.55-.21.88-.35a3.91,3.91,0,0,0,.8-.42L10,34l1.8-.44,2.58-.63a5.44,5.44,0,0,0,.93-.27l.21-.06a6.28,6.28,0,0,0,2-.49l.89-.39h0l2.19-.95a4.15,4.15,0,0,0,.65.92,3.77,3.77,0,0,0,1.1.82,3.1,3.1,0,0,0,1.42.35,2.63,2.63,0,0,0,.49,0l.11,0,.11,0a4,4,0,0,0,1.91-1.1l.24-.06.21-.34.11-.09.15-.14.13-.17.23-.31.2-.26.1-.31a8.1,8.1,0,0,0,.23-.88c0-.14.07-.28.12-.41.19-.55.38-1,.57-1.45a13,13,0,0,0,.67-1.78l0-.07.36,0a2.57,2.57,0,0,0,.61.14h.35c0,.38,0,.76,0,1.16a5.45,5.45,0,0,0,.6,2.26l0,.09.06.09a6.94,6.94,0,0,0,1,1.16,3.59,3.59,0,0,0,2.24.91,5.28,5.28,0,0,0,.55,0,4,4,0,0,0,1.2-.19A3.39,3.39,0,0,1,37,31l.21,0,.2-.07a5.46,5.46,0,0,0,1.75-1.06c.27-.25.54-.5.81-.73L40,29l0-.05c.42-.41.82-.82,1.18-1.24a8.19,8.19,0,0,0,1-1.36,3,3,0,0,0,.94-.89c.07-.08.13-.17.19-.25a2.36,2.36,0,0,0,.7-1.1l.19-.22c-.07.35-.15.69-.22,1v.1c-.11.73-.2,1.48-.27,2.23a10.83,10.83,0,0,0,0,2.49l.08.71v1a3.8,3.8,0,0,0,.23,1.05,4.47,4.47,0,0,0,.27.59,4.37,4.37,0,0,0,.8,1.3,3.4,3.4,0,0,0,1.89,1,4,4,0,0,0,1.1.13h1a7.71,7.71,0,0,0,1-.13c.26-.06.52-.12.76-.2l.61-.2c.25-.09.51-.19.82-.33a3.33,3.33,0,0,0,.76-.4l.1-.07,1.61-.39,2.37-.58A5,5,0,0,0,58,33l.16,0A6,6,0,0,0,60,32.48l.8-.34h.08v0l1-.42.12.14.1.1,0,0,0,0,.36.42.28.09a2.16,2.16,0,0,0,.29.21l0,0,0,0a4.2,4.2,0,0,0,1.24.36,5.23,5.23,0,0,0,.74.06,2.45,2.45,0,0,0,.48,0h.24a3.37,3.37,0,0,0,.87-.12,3.1,3.1,0,0,0,.42-.08l.58,0,.62-.48.54-.44,0,0,0,0,.12-.1a2.75,2.75,0,0,0,.67-.59,1.64,1.64,0,0,1,.25-.21,4.29,4.29,0,0,0,.84-.81l.14-.15c0,.21,0,.42.06.64l0,.26.09.24c.07.17.13.33.19.5A3,3,0,0,0,72.17,33a3.2,3.2,0,0,0,1.1.79,3.33,3.33,0,0,0,1.29.28,2.7,2.7,0,0,0,.49,0,3,3,0,0,0,1.35-.58l.16-.11.44-.25.12-.19.2-.16a2.73,2.73,0,0,0,.38-.38,3.39,3.39,0,0,0,.56.44,6,6,0,0,0,1.52.65h.08a3.27,3.27,0,0,0,.81.1,3.05,3.05,0,0,0,1.2-.23,4.68,4.68,0,0,0,1.18-.69,5.89,5.89,0,0,0,.86-.87c.14-.18.23-.27.27-.32l0,0,0,0a.68.68,0,0,1,.12-.12c.19-.17.34-.31.48-.46l.18-.2.08-.17.06-.07.14-.16.11-.19a2,2,0,0,1,.26-.39l.27-.33.27-.32.09-.12.08-.12a4.21,4.21,0,0,0,.31-.64l.09-.09.13-.21c.14-.23.27-.45.38-.65a3.52,3.52,0,0,0,.31-.68l.34-.28,0-.33.13-.15,0-.66a2.54,2.54,0,0,0,0-.39,1.89,1.89,0,0,0,.13-.7l.08-.21v-.25h0a.24.24,0,0,1,0-.08,25.34,25.34,0,0,0,.21,2.69,15.63,15.63,0,0,0,.79,3.17,8.21,8.21,0,0,0,.42,1.24A7.6,7.6,0,0,0,90.53,32a10.8,10.8,0,0,0,1.69,1.78l.11.09.12.07c.23.14.43.25.61.34l.17.16.27.14a9,9,0,0,0,2.59.92,6.09,6.09,0,0,0,1.13.1A6.62,6.62,0,0,0,99,35.3a7.71,7.71,0,0,0,2.92-1.46c.13-.09.26-.2.38-.3a4.07,4.07,0,0,0,.45.34l.15.11.18.08a3.33,3.33,0,0,0,1.4.32,2.22,2.22,0,0,0,.37,0,3.41,3.41,0,0,0,1.41-.47l.22-.13.18-.18.06-.07a3.81,3.81,0,0,0,.67.92l.11.11.13.1a4.67,4.67,0,0,0,1.18.6,3.8,3.8,0,0,0,1.23.22l.29,0a3.38,3.38,0,0,0,1.76-.54,5.47,5.47,0,0,0,.74-.59,3.62,3.62,0,0,0,.92-.91,2.88,2.88,0,0,1,.27-.34,9.92,9.92,0,0,0,.89-1.1l.42.13a3.47,3.47,0,0,0,.74.08,2.48,2.48,0,0,0,.61-.07L117,32a3,3,0,0,1,.42,0,4.18,4.18,0,0,0,1.3-.28l0,.08.28.33.41.48,0,0,0,0a3.33,3.33,0,0,0,1.75,1,2.87,2.87,0,0,0,1.46,0l.55-.13h0l0,0a3.67,3.67,0,0,0,.83-.39l.16,0,.25-.16a5.08,5.08,0,0,0,1-.83l.13-.14,0,0,.21-.2.32.37.5,0a3.71,3.71,0,0,0,.47.16,4.37,4.37,0,0,0,.81.15h.19a4,4,0,0,0,1.82-.43,4.8,4.8,0,0,0,1-.68,3.22,3.22,0,0,0,.28-.24l.32.15.09,0,.09,0a2.67,2.67,0,0,0,.9.16,2.31,2.31,0,0,0,.95-.2l.24-.05.09,0,.09,0,.17-.05a6.46,6.46,0,0,0,.24.86,3.11,3.11,0,0,0,.45.89,5.88,5.88,0,0,0,.38.5,5.07,5.07,0,0,0,.5.52,4,4,0,0,0,.61.44l.08.05.09,0a2.75,2.75,0,0,0,1,.29h.54a3.72,3.72,0,0,0,2.43-1.08l.92-1,.06-.06.05-.06c.24-.31.47-.63.7-1s.45-.68.67-1l.58-1a3.94,3.94,0,0,1,.4-.55l.05-.06,0-.06c.25-.35.51-.68.76-1s.57-.79.81-1.19l.47-.69a9.48,9.48,0,0,0,.61-1l.18-.35,0-.26,0,0A2.27,2.27,0,0,0,147.23,22.44ZM84,21.77l.14-.16.11-.18.11-.18,0,.61a.64.64,0,0,0-.08.14l-.32.6-.09.16-.06.18c-.06.17-.11.33-.17.49s-.08.22-.12.32a9.69,9.69,0,0,1-.92,1.58l-.35.51c0-.12,0-.25,0-.38v-.17c0-.19,0-.39,0-.59a4.62,4.62,0,0,0-.12-.81l.16-.2a3.72,3.72,0,0,0,.47-.42l.33-.34a3.39,3.39,0,0,0,.52-.56,2.8,2.8,0,0,0,.43-.49ZM51.19,27.56a.35.35,0,0,0,0-.11c.09.18.19.36.29.54l-.37,0A2.57,2.57,0,0,1,51.19,27.56Zm-43.43.2v-.24a2.35,2.35,0,0,1,.06-.65c0-.19.11-.4.17-.59,0,.08.07.17.11.24a8.3,8.3,0,0,0,.47.88,3.58,3.58,0,0,0,.29.39c-.35.08-.6.15-.66.17l-.34.11-.13,0C7.74,28,7.74,27.9,7.76,27.76Zm9.71.85a.49.49,0,0,1,0,.2h-.09s0,0,0,.06.09.16,0,.25l-.14.08a.34.34,0,0,1-.14.09h.27a.08.08,0,0,1-.06.09.19.19,0,0,0-.11.09.59.59,0,0,1-.07.24c-.05.09-.08.16-.12.24a.19.19,0,0,0-.18.14.28.28,0,0,1-.18.17l.07,0a4.18,4.18,0,0,1-1.39.35,3.22,3.22,0,0,0-.68.17A2.82,2.82,0,0,1,14,31L9.18,32.15a.54.54,0,0,0-.22.13,1.8,1.8,0,0,1-.2.18,3.82,3.82,0,0,1-.44.21c-.29.13-.54.23-.74.3l-.61.2c-.19.06-.4.11-.62.16s-.48.08-.78.11H4.69A1.85,1.85,0,0,1,4,33.35a1.55,1.55,0,0,1-1-.45A2.43,2.43,0,0,1,2.53,32a1.9,1.9,0,0,1-.23-.45A1.93,1.93,0,0,1,2.19,31V30l-.11-1a8.93,8.93,0,0,1,0-2.2c.07-.78.17-1.56.28-2.33.21-1.07.43-2.14.67-3.2s.46-2.14.68-3.26c.16-.55.32-1.09.47-1.64a9.08,9.08,0,0,1,.58-1.58c.14-.52.28-1,.43-1.56A11.41,11.41,0,0,1,5.7,11.7c.16-.5.34-1,.54-1.52s.38-1,.57-1.51L7.28,7a5.13,5.13,0,0,1,.37-.79A3.45,3.45,0,0,0,8,5.5a.56.56,0,0,0-.19-.38c-.12-.09-.14-.24,0-.44a.76.76,0,0,1,.37-.54,3.36,3.36,0,0,1,.58-.33,1.51,1.51,0,0,1,.37-.1,1.16,1.16,0,0,1,.26,0h.08c.12,0,.19,0,.22.12A.28.28,0,0,0,9.76,4c.42.14.81.28,1.17.44a4.89,4.89,0,0,1,1,.57,8.49,8.49,0,0,1,.55.72,1.22,1.22,0,0,1,.16,1,4.25,4.25,0,0,1-.36.59,3.12,3.12,0,0,0-.35.68l-.49,1.33c-.18.41-.37.83-.57,1.24s-.38.83-.54,1.25-.36.92-.5,1.36-.31.88-.47,1.3-.29.78-.48,1.25-.37.94-.56,1.42-.37.95-.53,1.43a11.46,11.46,0,0,0-.38,1.32,5,5,0,0,0-.33,1c-.06.35-.12.67-.17,1a9.29,9.29,0,0,1-.36,1.68,7.77,7.77,0,0,0-.32,1.65c-.13.42-.25.83-.34,1.22a4.12,4.12,0,0,0-.12,1.21c0,.4,0,.66,0,.77a2.67,2.67,0,0,1-.15.65.76.76,0,0,0,0,.31l-.09.26a1.11,1.11,0,0,1,.07.29.27.27,0,0,1-.11.24l.3.52s0-.08,0-.08,0,0,0,.08a.51.51,0,0,0,.17,0,.59.59,0,0,0,.33-.11,2.38,2.38,0,0,1,.48-.22c.61-.11,1-.19,1.23-.25L8.48,30l.33-.11,2.35-.56a4.84,4.84,0,0,0,1.3.22h0a4.83,4.83,0,0,0,3-1c.06,0,.12-.11.18-.16h0c.33,0,.65,0,1,0h0a3.89,3.89,0,0,1,.83.07C17.5,28.53,17.46,28.59,17.47,28.61ZM18,26.44c-.22,0-.46-.06-.71-.08.1-.17.21-.34.3-.52a15.57,15.57,0,0,0,.64-1.45l.09,0a3.09,3.09,0,0,0,.74-.3,1.15,1.15,0,0,1,.28-.09l.08,0q0,.45,0,.87c.05.68.1,1.31.17,1.92Zm1.46,2.84.44-.61c.06.28.12.57.19.85l0,.12,0,.12.12.27-.87-.51A2,2,0,0,0,19.41,29.28Zm18.83-6.19-.06.05,0,0Zm21.63,6s0,.08,0,.19l-.08,0s0,0,0,.07a.14.14,0,0,1,0,.22.57.57,0,0,0-.13.08.57.57,0,0,1-.13.08h.24c0,.05,0,.08-.05.08a.19.19,0,0,0-.1.08.47.47,0,0,1-.07.22l-.1.22a.2.2,0,0,0-.17.13.25.25,0,0,1-.17.16l.07,0A4,4,0,0,1,57.9,31a4.34,4.34,0,0,0-.62.16,2.78,2.78,0,0,1-.59.17c-.19.05-4.33,1.05-4.41,1.08a.61.61,0,0,0-.21.12,1.45,1.45,0,0,1-.18.16,2.17,2.17,0,0,1-.4.19l-.68.28-.56.18a4.74,4.74,0,0,1-.57.15c-.2,0-.44.07-.72.1h-.8a1.66,1.66,0,0,1-.62-.08,1.39,1.39,0,0,1-.89-.42,2.27,2.27,0,0,1-.47-.84A2.25,2.25,0,0,1,46,31.8a1.65,1.65,0,0,1-.1-.48v-.94l-.1-.88a8.45,8.45,0,0,1,0-2c.07-.71.15-1.42.26-2.14.19-1,.39-1.95.61-2.92s.42-2,.62-3c.16-.49.3-1,.43-1.49a8.54,8.54,0,0,1,.54-1.46L48.59,15a11.38,11.38,0,0,1,.49-1.42c.16-.45.32-.91.5-1.39s.35-.93.52-1.38l.44-1.5a5.17,5.17,0,0,1,.33-.72,3,3,0,0,0,.3-.69A.46.46,0,0,0,51,7.6c-.11-.09-.12-.23,0-.41a.71.71,0,0,1,.34-.49,2.59,2.59,0,0,1,.52-.31,1.53,1.53,0,0,1,.34-.09l.25,0h.07a.19.19,0,0,1,.2.11.25.25,0,0,0,.14.17c.39.13.74.26,1.07.4a5.1,5.1,0,0,1,.91.52c.17.2.34.43.51.67a1.1,1.1,0,0,1,.13.88,3.54,3.54,0,0,1-.32.55,3,3,0,0,0-.33.62l-.44,1.22c-.17.38-.34.76-.53,1.14s-.34.76-.49,1.14-.32.84-.46,1.25-.28.8-.43,1.18-.26.73-.43,1.15l-.36.9a8.75,8.75,0,0,0-1,2.55,7.67,7.67,0,0,0-.22,1.06,1.34,1.34,0,0,0-.07.27c-.06.32-.12.61-.16.89a9.8,9.8,0,0,1-.33,1.54,7.21,7.21,0,0,0-.3,1.51c-.12.38-.23.76-.31,1.12a4.07,4.07,0,0,0-.11,1.1c0,.37,0,.61,0,.71a2,2,0,0,1-.13.6.9.9,0,0,0-.06.28H49l-.09.24a.74.74,0,0,1,.06.27.22.22,0,0,1-.1.21l.28.48s0-.07,0-.07V31a.4.4,0,0,0,.15,0,.57.57,0,0,0,.31-.1,1.75,1.75,0,0,1,.43-.2,11.38,11.38,0,0,0,1.13-.23l.41-.12.31-.1,1.83-.44a4.1,4.1,0,0,0,1.51.29h0a4.63,4.63,0,0,0,2.89-.93,2.81,2.81,0,0,0,.31-.29l.68,0h0a4.1,4.1,0,0,1,.76.06C59.9,29.05,59.86,29.11,59.87,29.12Zm.07-2.2.15-.26.13-.28c0,.2,0,.38,0,.58Zm10-4.47q-.25.45-.51.87c-.31.48-.62,1-.93,1.56a6.38,6.38,0,0,1-.63,1l-.07.06c.06-.64.14-1.25.24-1.82l.31-1.44,0-.08A2.88,2.88,0,0,0,70,22.45Zm59.62-8.18a1.31,1.31,0,0,1,.36-.58h0s.06,0,.06,0a0,0,0,0,1,0,0h0l.17,0a1.31,1.31,0,0,1,.38.06,3.64,3.64,0,0,1,.47.18l.59.22a.73.73,0,0,1,.38.27,1.17,1.17,0,0,1,0,.7,1.57,1.57,0,0,1-.3.67l-.42.53a.34.34,0,0,0-.09.08,4.08,4.08,0,0,0-.77-.42,3.39,3.39,0,0,0-1.06-.28,3.35,3.35,0,0,1,0-.55A3.17,3.17,0,0,1,129.59,14.27ZM104,13.9l-.09.26a6.59,6.59,0,0,0-.27.86c0,.18-.09.36-.14.54l-.85,2.49v.08a15,15,0,0,0-.37,1.47,9.22,9.22,0,0,1-.3,1.06,14.61,14.61,0,0,0-.44,1.59l-.27,1.41a18.75,18.75,0,0,0-.26,2.4,2.51,2.51,0,0,0-.19.24l0,0,0,.05a2.69,2.69,0,0,1-.25.3,6.86,6.86,0,0,0-.63.7,7,7,0,0,1-.67.48l-.08,0L99,28c-.29.21-.55.42-.78.61a.85.85,0,0,1-.19.1l-.06,0h-.2l-.13-.06a1.65,1.65,0,0,1-.4-.35A2.69,2.69,0,0,0,97,28a6.2,6.2,0,0,1-.76-2.35,28.62,28.62,0,0,1-.13-3.05,19.93,19.93,0,0,1,.29-2.89,21.51,21.51,0,0,1,.7-2.85c.23-.69.51-1.44.81-2.19.22-.56.46-1.1.72-1.63a3,3,0,0,0,1.11,1.41,2.54,2.54,0,0,0,1.58.52,3.34,3.34,0,0,0,.62-.06,3.84,3.84,0,0,0,1.42-.53A4.25,4.25,0,0,0,104,13.9Z"/><path class="cls-2" d="M39.19,14.81a.51.51,0,0,0-.21,0,.17.17,0,0,0-.16.06.73.73,0,0,1-.28.13l-.47.27A6.39,6.39,0,0,0,37,16.1l-1,1a12.39,12.39,0,0,0-1.77,2.41,8.86,8.86,0,0,0-.76,1.81,5.27,5.27,0,0,1-.91.8,1.45,1.45,0,0,0-.68.26.88.88,0,0,1-.78.08.28.28,0,0,0-.1-.23c-.08-.08-.12-.15-.11-.2a.16.16,0,0,1,0-.15.27.27,0,0,0,0-.15,1,1,0,0,0,0-.17.86.86,0,0,1,0-.16.39.39,0,0,1,.06-.17.3.3,0,0,0,.05-.16,1.22,1.22,0,0,0,0-.34.68.68,0,0,1,0-.29l.17-.3a.85.85,0,0,0,.09-.31l0-.42a4.83,4.83,0,0,1,.17-.59c.07-.2.15-.4.22-.59a.8.8,0,0,0,.16-.45,2,2,0,0,1,.13-.35,1.62,1.62,0,0,0,.13-.34.58.58,0,0,1,.12-.37.51.51,0,0,1,.21-.28.93.93,0,0,0,.25-.27.82.82,0,0,0,0-.76l-.32-.15-.19-.16a.39.39,0,0,0-.21-.08.23.23,0,0,0-.16,0,.11.11,0,0,0-.1.09l-.38.1a2.45,2.45,0,0,0-.23.23,1.61,1.61,0,0,1-.36.31l-.47.72A21.32,21.32,0,0,0,29,18.59c-.36.75-.7,1.52-1,2.3l-.79,1.47a15.79,15.79,0,0,0-.71,1.56c-.24.54-.46,1.07-.65,1.6a15.86,15.86,0,0,1-.7,1.6q-.11-1.22-.18-2.46a9.08,9.08,0,0,1,.25-2.56c.09-.44.17-.86.25-1.26a4.2,4.2,0,0,1,.36-1.12l.3-1.15.21-.64a2.19,2.19,0,0,0,.14-.59,2.15,2.15,0,0,0-.36-1.29,3.78,3.78,0,0,0-.9-.82A3.05,3.05,0,0,0,24.7,15a4.21,4.21,0,0,1-.47-.18.86.86,0,0,0-.93.64,1,1,0,0,0-.13.38,1.55,1.55,0,0,1-.14.43c0,.1-.07.21-.11.31l-.24.28-.36.47c-.51.62-1,1.21-1.61,1.79A12.6,12.6,0,0,1,18.9,20.7l-.38.31a1.05,1.05,0,0,1-.3.15,1.78,1.78,0,0,1-.38.06,5,5,0,0,1-.61,0,12.39,12.39,0,0,1,.46-1.52,9.5,9.5,0,0,0,.43-1.56,4.54,4.54,0,0,0,.14-.82,4.8,4.8,0,0,1,.14-.83.41.41,0,0,1,0-.23l0-.18q0-.08-.06-.06s-.05,0-.05-.07c.07-.22,0-.37-.1-.46a.52.52,0,0,1-.21-.43c-.1,0-.14-.09-.14-.17a.39.39,0,0,0,0-.19,1.51,1.51,0,0,0-.23-.21l-.27-.17a.44.44,0,0,1-.34,0,1.13,1.13,0,0,0-.34-.08,1.17,1.17,0,0,0-.44.13,1.11,1.11,0,0,1-.41.14.92.92,0,0,1-.2-.34.53.53,0,0,0-.25-.26,1.15,1.15,0,0,0-.42-.19,1.81,1.81,0,0,1-.43-.14l-.34,0a.34.34,0,0,0-.27.09.75.75,0,0,0-.26.19.48.48,0,0,1-.26.15A7.73,7.73,0,0,0,12,15.4q-.72,1-1.44,2.07a7.63,7.63,0,0,0-1,2.49A8.8,8.8,0,0,0,9.21,23a6.75,6.75,0,0,0,.68,2.6c.11.24.24.48.38.72a2.24,2.24,0,0,0,.58.61,3.49,3.49,0,0,0,.68.36,2.55,2.55,0,0,0,1,.19A3.06,3.06,0,0,0,14.31,27a3.83,3.83,0,0,0,.79-.89c.23-.36.45-.75.66-1.16a11.72,11.72,0,0,0,.55-1.26c.16-.43.32-.85.48-1.24h.48l.28,0a.62.62,0,0,0,.23,0,1.2,1.2,0,0,0,.35-.16,4,4,0,0,1,.78-.26,2.3,2.3,0,0,0,.79-.33,8.66,8.66,0,0,0,.75-.67c.26-.25.5-.5.73-.74s.42-.44.6-.61l.19-.2c-.13.52-.24,1-.32,1.56a18.73,18.73,0,0,0-.23,1.87,12.12,12.12,0,0,0,0,1.8c.05.79.11,1.54.2,2.26A14.47,14.47,0,0,0,22,29c.11.29.22.54.32.74a1.87,1.87,0,0,0,.41.58,1.81,1.81,0,0,0,.54.4,1.16,1.16,0,0,0,.68.12,2,2,0,0,0,1.15-.75.62.62,0,0,0,.09-.12.27.27,0,0,1,.18-.11.17.17,0,0,1,.11-.1.42.42,0,0,0,.15-.09l.24-.32c.07-.22.13-.43.18-.65a4,4,0,0,1,.18-.66,16.27,16.27,0,0,1,.65-1.65,12.67,12.67,0,0,0,.61-1.64,2.31,2.31,0,0,0,.16-.41,2.31,2.31,0,0,1,.16-.41,1.42,1.42,0,0,0,.12-.47A1.06,1.06,0,0,1,28,23a.82.82,0,0,1,.08-.29c.05-.08.11-.17.17-.28s.15-.41.22-.59a4.47,4.47,0,0,1,.29-.58.9.9,0,0,0,.13-.29.57.57,0,0,1,.13-.24c0,.34,0,.68,0,1a2.14,2.14,0,0,0,.18.91,2.16,2.16,0,0,0,.28.38,1,1,0,0,0,.33.26.26.26,0,0,0,.17,0,.17.17,0,0,1,.16.08.37.37,0,0,1,.21.06.3.3,0,0,0,.16.05,1.45,1.45,0,0,0,.48,0l.41-.12a1.41,1.41,0,0,0,.58-.14,5.19,5.19,0,0,0,.51-.32,1.73,1.73,0,0,0,.29-.23l.2-.19.17-.09a.43.43,0,0,1,0,.05,7.36,7.36,0,0,0-.25,1.14c-.05.42-.1.84-.13,1.26a8.55,8.55,0,0,0,0,1.69,3.54,3.54,0,0,0,.36,1.45,4.3,4.3,0,0,0,.71.8,1.67,1.67,0,0,0,1.09.41,2,2,0,0,0,.93-.06,5.79,5.79,0,0,1,.91-.21,3.29,3.29,0,0,0,1.1-.66c.28-.26.58-.53.88-.78s.74-.75,1.07-1.13a6.1,6.1,0,0,0,.86-1.26,1.62,1.62,0,0,1,.49-.44,1.1,1.1,0,0,0,.45-.43.64.64,0,0,0,.22-.37c.24-.13.37-.27.38-.42a1.21,1.21,0,0,1,.33-.6q.32-.37.69-.78c.25-.27.48-.54.69-.78a2.9,2.9,0,0,0,.41-.6c-.05,0-.07-.1-.05-.14a.2.2,0,0,0,0-.13s0-.07-.11-.06a.47.47,0,0,0-.23,0v.07l0,0s0,0,0,0h0a.24.24,0,0,1-.06-.15c0-.05,0-.06-.08,0a4.81,4.81,0,0,0-.9.88c-.34.4-.61.71-.83.92a8.77,8.77,0,0,1-1.6,1.79,19.37,19.37,0,0,0-1.84,1.77,5.78,5.78,0,0,1-1.18,1,4.1,4.1,0,0,1-1.61.66l0-.15a4.57,4.57,0,0,1-.2-1.54A9.9,9.9,0,0,1,35.82,24a11,11,0,0,1,.78-2.25l.18-.31a.46.46,0,0,1,.28-.23l.39,0a1.2,1.2,0,0,0,.74-.27l.64-.5.48-.51c.15-.15.32-.31.51-.47a5.21,5.21,0,0,0,1-1.36,3.3,3.3,0,0,0,.39-1.76.86.86,0,0,0-.07-.53,1.64,1.64,0,0,0-.28-.33,3.27,3.27,0,0,0-1.28-.63l-.15,0a.13.13,0,0,0-.15,0Q39.21,14.84,39.19,14.81Zm-23.82,4.7a2.54,2.54,0,0,1-.16-1.08,1.87,1.87,0,0,1,.06-.73,2.08,2.08,0,0,0,.09-.7,1.33,1.33,0,0,1,.09-.18l.2-.29c.07-.09.13-.19.19-.28a.55.55,0,0,0,.09-.19.35.35,0,0,1,.16-.16.12.12,0,0,0,.09-.16,2.3,2.3,0,0,1,.48-.3.64.64,0,0,1,.61.05,1.12,1.12,0,0,0,.2.37.55.55,0,0,1,.11.41,3,3,0,0,1-.08.52c0,.18-.08.36-.12.56-.11.5-.26,1.06-.45,1.7s-.37,1.15-.53,1.57c0,0-.08,0-.23-.14a1.52,1.52,0,0,0-.27-.17A1.75,1.75,0,0,1,15.37,19.51Zm-1.09,2.08c.19.14.39.27.59.39a3.44,3.44,0,0,0,.83.29c-.12.29-.25.62-.4,1a10.71,10.71,0,0,1-.46,1,5.64,5.64,0,0,1-.56.92,2.86,2.86,0,0,1-.68.67.53.53,0,0,1-.4,0,.53.53,0,0,1-.23-.21l-.06-.21-.09-.29a1.11,1.11,0,0,0,0-.23c0-.11,0-.2-.05-.27a.62.62,0,0,0-.1-.26.39.39,0,0,1-.06-.21v-1a6.47,6.47,0,0,1,.2-1.63A8.78,8.78,0,0,1,13.3,20l.19.47a2.15,2.15,0,0,0,.37.58A5.72,5.72,0,0,1,14.28,21.59Zm26.13-5.18a.68.68,0,0,1,0,.38,2.26,2.26,0,0,1-.09.41,2.36,2.36,0,0,1-.77,1.31c-.42.4-.8.76-1.13,1.09-.1.09-.24.19-.4.31a.79.79,0,0,1-.54.14h-.08c-.05,0-.05-.07,0-.1a.21.21,0,0,0,.07-.13c.09-.19.17-.37.23-.53a1.17,1.17,0,0,1,.34-.45l.16-.34a.69.69,0,0,1,.19-.27,3.54,3.54,0,0,0,.14-.33,2.16,2.16,0,0,1,.14-.33,1.7,1.7,0,0,1,.2-.33,1.77,1.77,0,0,0,.19-.33,1.73,1.73,0,0,0,.17-.36.51.51,0,0,1,.27-.32c.05-.05.21-.06.46,0S40.37,16.28,40.41,16.41Z"/><path class="cls-3" d="M9.05,3.71a1.51,1.51,0,0,0-.37.1,3.36,3.36,0,0,0-.58.33.76.76,0,0,0-.37.54c-.09.2-.07.35,0,.44A.56.56,0,0,1,8,5.5a3.45,3.45,0,0,1-.32.75A5.13,5.13,0,0,0,7.28,7L6.81,8.67c-.19.49-.38,1-.57,1.51s-.38,1-.54,1.52a11.41,11.41,0,0,0-.54,1.55c-.15.52-.29,1-.43,1.56a9.08,9.08,0,0,0-.58,1.58c-.15.55-.31,1.09-.47,1.64-.22,1.12-.44,2.21-.68,3.26s-.46,2.13-.67,3.2c-.11.77-.21,1.55-.28,2.33a8.93,8.93,0,0,0,0,2.2l.11,1v1a1.93,1.93,0,0,0,.11.52,1.9,1.9,0,0,0,.23.45,2.43,2.43,0,0,0,.52.92,1.55,1.55,0,0,0,1,.45,1.85,1.85,0,0,0,.67.09h.88c.3,0,.56-.07.78-.11s.43-.1.62-.16l.61-.2c.2-.07.45-.17.74-.3a3.82,3.82,0,0,0,.44-.21,1.8,1.8,0,0,0,.2-.18.54.54,0,0,1,.22-.13L14,31a2.82,2.82,0,0,0,.64-.18,3.22,3.22,0,0,1,.68-.17,4.18,4.18,0,0,0,1.39-.35l-.07,0a.28.28,0,0,0,.18-.17.19.19,0,0,1,.18-.14c0-.08.07-.15.12-.24a.59.59,0,0,0,.07-.24.19.19,0,0,1,.11-.09.08.08,0,0,0,.06-.09h-.09a.48.48,0,0,1-.18,0,.34.34,0,0,0,.14-.09l.14-.08c.09-.09.09-.18,0-.25s-.06-.08.07-.05a.49.49,0,0,0,0-.2s0-.08.11-.2a3.89,3.89,0,0,0-.83-.07c-.33,0-.66,0-1,0s-.65.06-1,.11l-.73.13c-.46.09-5.13,1.2-5.26,1.24L8.48,30,8,30.1c-.21.06-.62.14-1.23.25a2.38,2.38,0,0,0-.48.22.52.52,0,0,1-.5.08q0-.15,0,0l-.3-.52a.27.27,0,0,0,.11-.24,1.11,1.11,0,0,0-.07-.29l.09-.26a.76.76,0,0,1,0-.31,2.67,2.67,0,0,0,.15-.65c0-.11,0-.37,0-.77a4.12,4.12,0,0,1,.12-1.21c.09-.39.21-.8.34-1.22a7.77,7.77,0,0,1,.32-1.65,9.29,9.29,0,0,0,.36-1.68c0-.3.11-.62.17-1a5,5,0,0,1,.33-1,11.46,11.46,0,0,1,.38-1.32c.16-.48.34-1,.53-1.43s.38-.95.56-1.42.35-.88.48-1.25.32-.85.47-1.3.31-.89.5-1.36.34-.83.54-1.25.39-.83.57-1.24l.49-1.33a3.12,3.12,0,0,1,.35-.68,4.25,4.25,0,0,0,.36-.59,1.22,1.22,0,0,0-.16-1A8.49,8.49,0,0,0,11.92,5a4.89,4.89,0,0,0-1-.57c-.36-.16-.75-.3-1.17-.44a.28.28,0,0,1-.15-.18c0-.09-.12-.13-.28-.12Z"/><path class="cls-4" d="M80.56,4.5l-.35.27a1.52,1.52,0,0,1-.29.2.89.89,0,0,0-.26.21l-.43.52c-.15.25-.29.47-.4.68s-.23.44-.37.69l-.29.67a6.15,6.15,0,0,0-.76,1.4l-.55,1.45q-.6,1.53-1.11,3c-.33,1-.64,2.05-.91,3.15a1.59,1.59,0,0,1-.1.37,3.14,3.14,0,0,0-.07.41c-.09.37-.19.74-.3,1.12s-.42.65-.62,1a16.69,16.69,0,0,0-.8,1.58c-.31.53-.61,1.06-.89,1.57s-.58,1-.89,1.54-.6,1-.89,1.5a8.2,8.2,0,0,1-1,1.38,4.77,4.77,0,0,0-.59.61,2.86,2.86,0,0,1-.56.54,5.78,5.78,0,0,0-.7.57.78.78,0,0,1-.33.26,1.8,1.8,0,0,1-.4.15l-.29,0a2.25,2.25,0,0,0-.24-.47,1.29,1.29,0,0,1-.16-.47,4.94,4.94,0,0,1-.26-2.22c.07-.87.17-1.7.31-2.49l.34-1.58a10.1,10.1,0,0,0,.38-1.51,7.2,7.2,0,0,1,.41-1.5,4.72,4.72,0,0,1,.94-1.79,1.39,1.39,0,0,1,.23-.31.31.31,0,0,1,.25-.12.48.48,0,0,1,.21.1.93.93,0,0,1,.2.19,1.5,1.5,0,0,1,0,.43,3.3,3.3,0,0,1,0,.69,1.41,1.41,0,0,1-.27.64c0,.07-.11.13-.16.19a1.54,1.54,0,0,0-.17.22,1.14,1.14,0,0,1-.19.19.32.32,0,0,0-.13.26.62.62,0,0,0,.18.49.82.82,0,0,0,.41.29.91.91,0,0,0,.72-.07.93.93,0,0,0,.38-.39.9.9,0,0,0,.14-.47c0-.19,0-.39.09-.61a1.52,1.52,0,0,1,.12-.32,1,1,0,0,0,.08-.32,4,4,0,0,0,.08-1.07,1.92,1.92,0,0,0-.19-.8,1.24,1.24,0,0,0-.65-.51,3.26,3.26,0,0,0-1-.29c-.24,0-.52,0-.83.08a2,2,0,0,0-.73.24,1.33,1.33,0,0,0-.49.25,2.6,2.6,0,0,0-.4.41,10.09,10.09,0,0,0-1.31,1.58c-.11.15-.2.32-.3.48l0,.05c-.46.57-.95,1.11-1.47,1.64a11.59,11.59,0,0,1-1.66,1.41,4.13,4.13,0,0,1-.36.29.87.87,0,0,1-.27.14l-.35.05c-.14,0-.33,0-.56,0A12.89,12.89,0,0,1,60.07,21a8.49,8.49,0,0,0,.4-1.43,4.83,4.83,0,0,0,.13-.76,3.93,3.93,0,0,1,.13-.75s0-.1,0-.21v-.18s0-.06,0-.05-.05,0,0-.06,0-.34-.09-.42a.49.49,0,0,1-.2-.4q-.14,0-.12-.15a.9.9,0,0,0,0-.18L60,16.21l-.25-.16a.44.44,0,0,1-.32,0,.74.74,0,0,0-.3-.08,1,1,0,0,0-.41.12,1.07,1.07,0,0,1-.38.13.9.9,0,0,1-.18-.31.42.42,0,0,0-.23-.24,1,1,0,0,0-.38-.17,1.77,1.77,0,0,1-.39-.14l-.31,0a.32.32,0,0,0-.25.08.64.64,0,0,0-.24.17.45.45,0,0,1-.24.14A7.16,7.16,0,0,0,54.82,17c-.44.59-.88,1.22-1.31,1.9a6.63,6.63,0,0,0-.93,2.27A8.34,8.34,0,0,0,52.3,24a6.24,6.24,0,0,0,.63,2.38,5.27,5.27,0,0,0,.35.66,1.77,1.77,0,0,0,.53.56,3.16,3.16,0,0,0,.62.33,2.14,2.14,0,0,0,.87.17A2.64,2.64,0,0,0,57,27.63a3,3,0,0,0,.73-.81c.21-.33.41-.69.61-1.07a12,12,0,0,0,.51-1.16c.14-.39.29-.77.43-1.13a3.17,3.17,0,0,1,.44,0l.26,0a.5.5,0,0,0,.21,0,1.09,1.09,0,0,0,.32-.14,3.19,3.19,0,0,1,.72-.24,2.36,2.36,0,0,0,.72-.31,7.2,7.2,0,0,0,.69-.61l.48-.49c0,.06,0,.12-.05.18-.17.64-.32,1.27-.44,1.88s-.23,1.28-.31,2a8.42,8.42,0,0,0,.06,2.67,3.9,3.9,0,0,0,1,2,2.49,2.49,0,0,1,.27.28l.29.1a.24.24,0,0,1,.06.11s0,.05.07.08a2.39,2.39,0,0,0,.64.16,1.61,1.61,0,0,0,.66,0h.47a1.55,1.55,0,0,0,.49-.09.41.41,0,0,1,.16,0,.49.49,0,0,0,.24-.05.88.88,0,0,1,.37,0l.55-.43a2.85,2.85,0,0,1,.33-.25.92.92,0,0,0,.26-.26,4.92,4.92,0,0,1,.56-.48,2.33,2.33,0,0,0,.5-.49,11.72,11.72,0,0,0,1-1.2c.46-.62.9-1.28,1.31-2s.79-1.41,1.14-2.16c.15-.4.3-.79.46-1.17a7,7,0,0,1,.56-1.09h0c-.12.65-.25,1.29-.35,2-.17,1.16-.3,2.36-.37,3.6,0,.63-.08,1.23-.09,1.81A11.27,11.27,0,0,0,73,30.57c.08.2.15.39.22.58a1,1,0,0,0,.36.48,1.22,1.22,0,0,0,.49.37,1.1,1.1,0,0,0,.62.1,1.06,1.06,0,0,0,.47-.19,3.94,3.94,0,0,1,.4-.26.7.7,0,0,1,.21-.21,1.08,1.08,0,0,0,.24-.18,1.12,1.12,0,0,0,.27-.32.84.84,0,0,1,.27-.3,2.51,2.51,0,0,1,.24-.38,1.42,1.42,0,0,0,.2-.41,2.55,2.55,0,0,0,.06-.54,5.17,5.17,0,0,1,0-.54,3.48,3.48,0,0,1,.13-1.27c.1-.32.19-.63.27-.94l.23-.87a5.59,5.59,0,0,0,.25-1,5.28,5.28,0,0,1,.21-.92,1.77,1.77,0,0,1,.09.79c0,.26-.06.54-.08.84a1.84,1.84,0,0,0,0,.47,2.43,2.43,0,0,1,0,.47c0,.3,0,.64,0,1s.05.72.09,1.08a10.33,10.33,0,0,0,.16,1,5,5,0,0,0,.25.86,1.46,1.46,0,0,0,.58.77,4.34,4.34,0,0,0,1,.43,1.18,1.18,0,0,0,.77,0,2.76,2.76,0,0,0,.68-.4,3.57,3.57,0,0,0,.55-.55,5.8,5.8,0,0,1,.42-.49,3.84,3.84,0,0,1,.3-.28,3.18,3.18,0,0,0,.26-.26,2.12,2.12,0,0,1,.32-.43,3.65,3.65,0,0,1,.47-.69l.54-.66a2.35,2.35,0,0,0,.21-.45,1.27,1.27,0,0,1,.31-.48c.14-.22.26-.42.37-.61a3.36,3.36,0,0,0,.26-.66s0-.06,0-.06-.06,0,0-.05a.32.32,0,0,1,.07-.25l.21-.25a.46.46,0,0,0,0-.21c0,.05,0,.07-.11.06a.94.94,0,0,1,.07-.3,1.25,1.25,0,0,0,.11-.31v-.07a.07.07,0,0,1,0-.06c0-.05,0-.08,0-.11a.15.15,0,0,1,0-.1.8.8,0,0,1,0-.21c0-.07.06-.14.09-.23a.49.49,0,0,0,0-.11.33.33,0,0,1,0-.14.25.25,0,0,1,.06-.17.19.19,0,0,0,.06-.13.23.23,0,0,0,0-.14.07.07,0,0,1,0-.1l0,0s0,0,0-.06.06,0,0-.05a.05.05,0,0,1,0-.05.92.92,0,0,0-.46.43l-.35.65-.18.53q-.09.25-.18.45a12.36,12.36,0,0,1-1.11,1.93q-.65.93-1.23,1.71c-.21.29-.45.59-.73.92a1.92,1.92,0,0,1-1,.62.63.63,0,0,1-.49-.2,1.39,1.39,0,0,1-.32-.53,3,3,0,0,1-.15-.7,4.23,4.23,0,0,1,0-.7,4.6,4.6,0,0,0,0-1,8.73,8.73,0,0,1-.09-1.08c0-.24,0-.48-.07-.72a1.77,1.77,0,0,0-.11-.59,1,1,0,0,0-.21-.36.44.44,0,0,1,.08-.76c.16-.13.3-.23.42-.31l.39-.46a1,1,0,0,1,.24-.22,1.31,1.31,0,0,0,.24-.23l.42-.42a2,2,0,0,0,.38-.42,2.3,2.3,0,0,0,.31-.32,2,2,0,0,1,.27-.33l.15-.26a2.34,2.34,0,0,1,.2-.27,1.43,1.43,0,0,0,.19-.26.21.21,0,0,0,0-.16.37.37,0,0,1,0-.15l.17-.13a.38.38,0,0,0,.13-.12l0-.28a.48.48,0,0,1,.1-.17.31.31,0,0,0,.06-.13.43.43,0,0,0,0-.23.78.78,0,0,0,0-.22,1.88,1.88,0,0,0-.17-.47,1.5,1.5,0,0,0-1.28-.62.86.86,0,0,0-.48,0,1.21,1.21,0,0,0-.61.28l-.49.4a8.77,8.77,0,0,0-1.14,1.49c-.33.54-.64,1.1-.92,1.68-.36.81-.74,1.59-1.12,2.35a13.69,13.69,0,0,0-1,2.5,19.27,19.27,0,0,1,.29-2.15c.14-.68.29-1.33.46-2,.1-.48.23-.95.37-1.41s.28-.94.41-1.41a2.11,2.11,0,0,0,.12-.48,2.85,2.85,0,0,1,.13-.48c0-.11.07-.22.11-.34a2.41,2.41,0,0,1,.15-.33l.36-.64a9,9,0,0,0,.74-1.24c.21-.41.44-.83.68-1.25L81,12.63a2.47,2.47,0,0,0,.3-.66,4.58,4.58,0,0,1,.26-.73c.09-.24.19-.47.28-.69s.22-.44.35-.68l.47-1.46a3.69,3.69,0,0,1,.1-.39c0-.13.06-.26.1-.4a1.49,1.49,0,0,1,.06-.37,1.05,1.05,0,0,1,0-.19.37.37,0,0,0,0-.15,1.4,1.4,0,0,0,0-.3,1,1,0,0,1,0-.3.56.56,0,0,1,0-.15.41.41,0,0,0,0-.19.82.82,0,0,0,0-.21A1.42,1.42,0,0,0,83,5.55l-.13-.11a.24.24,0,0,1-.06-.13.09.09,0,0,0,0-.09,1,1,0,0,0-.41-.33,4.67,4.67,0,0,0-.6-.2l-.37-.15a1,1,0,0,0-.34-.08A.74.74,0,0,0,80.56,4.5ZM58,20.78a2.42,2.42,0,0,1-.15-1,1.63,1.63,0,0,1,.06-.68,1.72,1.72,0,0,0,.08-.63.45.45,0,0,1,.09-.17,2.33,2.33,0,0,1,.17-.26,2.11,2.11,0,0,0,.18-.27.55.55,0,0,0,.08-.17.26.26,0,0,1,.15-.14.12.12,0,0,0,.09-.15,1.75,1.75,0,0,1,.44-.28.6.6,0,0,1,.55,0,1.29,1.29,0,0,0,.18.35.54.54,0,0,1,.11.37,3.7,3.7,0,0,1-.07.48c0,.16-.08.33-.11.52-.11.45-.25,1-.42,1.55S59,21.42,58.9,21.8c0,0-.08,0-.22-.12a.76.76,0,0,0-.25-.16A1.76,1.76,0,0,1,58,20.78Zm-1,1.91a4.51,4.51,0,0,0,.54.35,2.74,2.74,0,0,0,.77.27c-.12.27-.24.57-.37.9s-.27.63-.42.94A5.92,5.92,0,0,1,57,26a2.41,2.41,0,0,1-.63.61.49.49,0,0,1-.36,0,.51.51,0,0,1-.21-.2,1.8,1.8,0,0,1,0-.19l-.09-.27a.81.81,0,0,0,0-.21c0-.09,0-.18-.05-.25a.69.69,0,0,0-.09-.23.36.36,0,0,1-.06-.2V24.1a5.41,5.41,0,0,1,.19-1.5,7,7,0,0,1,.45-1.34l.18.43a1.94,1.94,0,0,0,.34.53C56.7,22.36,56.82,22.52,57,22.69Zm21.77-.05a11.88,11.88,0,0,0,.6-1.12c.18-.39.37-.77.58-1.15a6.89,6.89,0,0,1,.69-1.06,4.64,4.64,0,0,1,.9-.87.71.71,0,0,1,0,.35c0,.12,0,.23-.08.34a2.42,2.42,0,0,1-.39.91c-.18.27-.36.53-.55.79s-.26.31-.4.46a5,5,0,0,0-.4.49,2.24,2.24,0,0,1-.47.45,2.17,2.17,0,0,0-.51.45ZM81.48,5.85a.9.9,0,0,1,.13.22c.08,0,.13.1.12.15a.16.16,0,0,1,0,.15.65.65,0,0,0,0,.15v.25a.72.72,0,0,1,0,.21,2.69,2.69,0,0,1-.21.9,9.46,9.46,0,0,0-.31.9l-.28.88a7.23,7.23,0,0,1-.38.84,5.66,5.66,0,0,1-.35.81,7.26,7.26,0,0,0-.34.77l-.88,1.53,0,0a6.14,6.14,0,0,1,.17-.68c.08-.22.16-.47.25-.74a2.14,2.14,0,0,0,.07-.38l0-.42a3.38,3.38,0,0,0,.08-.34,1.67,1.67,0,0,1,.11-.34,2.9,2.9,0,0,0,.17-.75,3,3,0,0,1,.17-.79,1.42,1.42,0,0,0,.11-.35,3.21,3.21,0,0,1,.08-.36c0-.16.07-.3.1-.43a1.76,1.76,0,0,0,.07-.43,1,1,0,0,0,0-.31.83.83,0,0,1,0-.32l.08-.13.09-.2a.29.29,0,0,0,0-.16.33.33,0,0,1,0-.15l.16-.16L80.74,6a.39.39,0,0,0,.05-.14.11.11,0,0,1,0-.1.47.47,0,0,1,.33-.06A.56.56,0,0,1,81.48,5.85Z"/><path class="cls-5" d="M59.11,30.61a.25.25,0,0,0,.17-.16.2.2,0,0,1,.17-.13l.1-.22a.47.47,0,0,0,.07-.22.19.19,0,0,1,.1-.08s.05,0,.05-.08h-.24a.57.57,0,0,0,.13-.08.57.57,0,0,1,.13-.08.14.14,0,0,0,0-.22c-.08-.07-.06-.08.05-.05s0-.18,0-.19,0-.07.11-.18a4.1,4.1,0,0,0-.76-.06c-.31,0-.61,0-.91,0s-.6.06-.88.1l-.67.12c-.42.09-4.7,1.1-4.82,1.14l-.31.1-.41.12a11.38,11.38,0,0,1-1.13.23,1.75,1.75,0,0,0-.43.2.47.47,0,0,1-.46.07q0-.14,0,0l-.28-.48a.22.22,0,0,0,.1-.21.74.74,0,0,0-.06-.27l.09-.24h-.11a.9.9,0,0,1,.06-.28,2,2,0,0,0,.13-.6c0-.1,0-.34,0-.71a4.07,4.07,0,0,1,.11-1.1c.08-.36.19-.74.31-1.12a7.21,7.21,0,0,1,.3-1.51,9.8,9.8,0,0,0,.33-1.54c0-.28.1-.57.16-.89a4.19,4.19,0,0,1,.3-.95A9.05,9.05,0,0,1,51,19.88c.15-.44.31-.88.49-1.32s.34-.87.52-1.3.32-.81.43-1.15.29-.77.43-1.18.29-.82.46-1.25.31-.76.49-1.14.36-.76.53-1.14l.44-1.22a3,3,0,0,1,.33-.62A3.54,3.54,0,0,0,55.43,9a1.1,1.1,0,0,0-.13-.88c-.17-.24-.34-.47-.51-.67a5.1,5.1,0,0,0-.91-.52c-.33-.14-.68-.27-1.07-.4a.25.25,0,0,1-.14-.17c0-.08-.11-.12-.25-.1a.76.76,0,0,0-.27,0,1.53,1.53,0,0,0-.34.09,2.59,2.59,0,0,0-.52.31.71.71,0,0,0-.34.49c-.08.18-.07.32,0,.41a.46.46,0,0,1,.18.34,3,3,0,0,1-.3.69,5.17,5.17,0,0,0-.33.72l-.44,1.5c-.17.45-.35.91-.52,1.38s-.34.94-.5,1.39A11.38,11.38,0,0,0,48.59,15l-.39,1.43a8.54,8.54,0,0,0-.54,1.46c-.13.5-.27,1-.43,1.49-.2,1-.4,2-.62,3s-.42,1.94-.61,2.92c-.11.72-.19,1.43-.26,2.14a8.45,8.45,0,0,0,0,2l.1.88v.94a1.65,1.65,0,0,0,.1.48,2.25,2.25,0,0,0,.21.41,2.27,2.27,0,0,0,.47.84,1.39,1.39,0,0,0,.89.42,1.66,1.66,0,0,0,.62.08H49c.28,0,.52-.06.72-.1a4.74,4.74,0,0,0,.57-.15l.56-.18.68-.28a2.17,2.17,0,0,0,.4-.19,1.45,1.45,0,0,0,.18-.16.61.61,0,0,1,.21-.12c.08,0,4.22-1,4.41-1.08a2.78,2.78,0,0,0,.59-.17A4.34,4.34,0,0,1,57.9,31a4,4,0,0,0,1.28-.31Z"/><path class="cls-6" d="M99.81,2.11a.73.73,0,0,0-.27,0,3.45,3.45,0,0,0-1.38.74A10.12,10.12,0,0,0,97,4.06a3.49,3.49,0,0,0-.75.8c-.18.29-.36.57-.56.84-.43.58-.82,1.13-1.15,1.66A14.06,14.06,0,0,0,93.62,9c-.53,1.16-1,2.32-1.46,3.46A24.21,24.21,0,0,0,91.06,16c-.14.6-.26,1.19-.38,1.78a15.6,15.6,0,0,0-.23,1.82c0,.59-.07,1.19-.1,1.79s0,1.23-.06,1.87a23.38,23.38,0,0,0,.2,2.69,13.91,13.91,0,0,0,.73,2.87,5.75,5.75,0,0,0,.33,1,5.18,5.18,0,0,0,.58,1,9.32,9.32,0,0,0,1.35,1.42c.2.12.38.22.53.29a1.54,1.54,0,0,1,.41.29,7.13,7.13,0,0,0,2,.72,4.33,4.33,0,0,0,2.07-.12,5.79,5.79,0,0,0,2.19-1.1,4.84,4.84,0,0,0,.7-.64q.28-.35.54-.6l.14-.41.51-.71.18-.19a1.2,1.2,0,0,0,0,.19.9.9,0,0,0,0,.28,2.86,2.86,0,0,1,.07.28c0,.12,0,.23,0,.34a1.67,1.67,0,0,0,.08.3,1.81,1.81,0,0,0,.17.29l.23.33a1.17,1.17,0,0,0,.22.3l.3.23a1.46,1.46,0,0,0,.72.13,1.63,1.63,0,0,0,.61-.2l.56-.58a3.84,3.84,0,0,1,.21-.4,1.13,1.13,0,0,1,.1-.13l.1-.13a1.15,1.15,0,0,0,.09-.29,1.32,1.32,0,0,1,0-.26.85.85,0,0,0,.24-.4,1.12,1.12,0,0,0,.1-.39,1.6,1.6,0,0,1,.11-.43,2.32,2.32,0,0,1,.12-.42,1.84,1.84,0,0,1,.15-.35,3.85,3.85,0,0,0,.07-.49,1.5,1.5,0,0,1,.11-.44,3.51,3.51,0,0,1,.28-.74c.13-.25.24-.51.36-.78l.3-.77.4-.56a5.84,5.84,0,0,1,.42-.56l0,0s0,0,.07,0a9,9,0,0,0-.28,1.54,10.51,10.51,0,0,1-.28,1.65,5,5,0,0,0-.15.77c0,.27-.07.52-.12.78s0,.31,0,.45,0,.29,0,.45a1.81,1.81,0,0,0-.06.76,11.31,11.31,0,0,0,.09,1.48,1.85,1.85,0,0,0,.53,1.14,2.54,2.54,0,0,0,.66.33,1.77,1.77,0,0,0,.74.1,1.35,1.35,0,0,0,.78-.22,2.4,2.4,0,0,0,.56-.48,1.69,1.69,0,0,0,.56-.49,4.43,4.43,0,0,1,.43-.54,10.38,10.38,0,0,0,.85-1.08c.28-.4.55-.79.8-1.19.14-.21.27-.45.4-.67a2,2,0,0,0,.06.26,1.66,1.66,0,0,0,.39.66,1.45,1.45,0,0,0,.74.44,1.14,1.14,0,0,0,.44,0l.33-.1a5.31,5.31,0,0,1,.79-.09,2.11,2.11,0,0,0,.73-.17,1.49,1.49,0,0,0,.9-.8l.17-.14a.44.44,0,0,0,.13-.15.42.42,0,0,1,0-.17,1,1,0,0,1,.25-.31.9.9,0,0,0,.25-.31l.22-.33a1.82,1.82,0,0,0,.18-.37c.12-.24.23-.49.34-.74a7.72,7.72,0,0,0,.31-.77,8.79,8.79,0,0,1-.23,1.06c-.1.36-.19.74-.3,1.12a11.55,11.55,0,0,0-.09,1.16,5.52,5.52,0,0,0,.12,1.14l.12.32.08.29.41.48a1.3,1.3,0,0,0,.77.41,1,1,0,0,0,.55,0l.5-.12a1.51,1.51,0,0,0,.36-.18,1.51,1.51,0,0,1,.36-.18,2.9,2.9,0,0,0,.6-.51,1.07,1.07,0,0,1,.23-.26,1.5,1.5,0,0,0,.27-.29,3.19,3.19,0,0,0,.48-.87l.14-.18a1.7,1.7,0,0,0,.18-.28l.41-.56a2.56,2.56,0,0,0,.34-.63,1.14,1.14,0,0,1,.17-.37l.13-.17a11.82,11.82,0,0,0,.11,1.53,3,3,0,0,0,.68,1.49h.07a1.39,1.39,0,0,0,.44.19,2.63,2.63,0,0,0,.44.09,2.17,2.17,0,0,0,1-.22,2.09,2.09,0,0,0,.68-.49.3.3,0,0,0,.19-.15.56.56,0,0,1,.11-.17l.34-.32a.35.35,0,0,0,.11-.2.64.64,0,0,1,.1-.24,1.24,1.24,0,0,0,.35-.39,2.78,2.78,0,0,1,.19-.26c.08-.1.17-.22.25-.34a3.88,3.88,0,0,0,.15.71,2.36,2.36,0,0,0,.52.88l.17.08.17.09a.55.55,0,0,0,.39,0l.31-.12.39-.07a1.28,1.28,0,0,0,.81-.6,4.25,4.25,0,0,0,.39-1L135,27c.06-.23.12-.47.16-.72a17.08,17.08,0,0,1,.5-2.2c.21-.67.43-1.33.67-2,.06-.22.13-.44.2-.64a5.51,5.51,0,0,1,.28-.61c.22-.44.48-.9.77-1.38a4.12,4.12,0,0,1,1-1.15l.2-.16a.32.32,0,0,1,.3,0,5.67,5.67,0,0,1-.51,1.62,10.62,10.62,0,0,0-.61,1.59c-.18.54-.36,1-.52,1.44s-.33.92-.52,1.51a10.06,10.06,0,0,0-.41,1.72c-.1.61-.19,1.21-.28,1.8a9.34,9.34,0,0,0-.11,1.84,5.9,5.9,0,0,0,.31,1.76,1.23,1.23,0,0,0,.19.38l.27.36c.11.12.2.22.29.3a3.66,3.66,0,0,0,.33.23.8.8,0,0,0,.31.1l.24,0a1.75,1.75,0,0,0,1.15-.51q.45-.45.87-.9c.21-.26.42-.55.63-.86s.41-.62.61-.95l.58-1a6.94,6.94,0,0,1,.59-.82c.26-.35.52-.7.78-1s.49-.69.71-1,.33-.5.51-.76a8.46,8.46,0,0,0,.48-.8v-.16a.19.19,0,0,1,0-.15l.24-.42c.1-.19.08-.31-.08-.37s-.11,0-.21.09a2,2,0,0,1-.23.22.83.83,0,0,1-.2.27.62.62,0,0,0-.15.19c-.32.51-.66,1-1,1.54a15.27,15.27,0,0,1-1.12,1.42l-.43.6c-.15.22-.32.44-.5.67l-.51.67-.39.56a5.13,5.13,0,0,1-.54.69c-.21.22-.4.42-.57.62l-.18.21a.61.61,0,0,1-.24.17.66.66,0,0,0,0-.14.81.81,0,0,1,0-.17l0-.14a.43.43,0,0,0,0-.17,1.07,1.07,0,0,0,0-.18.67.67,0,0,1,0-.2.87.87,0,0,1,.07-.54,2.54,2.54,0,0,0,.19-.59,18,18,0,0,0,.4-1.8c.11-.6.23-1.2.37-1.79a6.26,6.26,0,0,1,.31-1.2c0-.18.08-.38.13-.6a3.41,3.41,0,0,0,.1-.6,2.58,2.58,0,0,1,.25-.69,2.38,2.38,0,0,0,.21-.73l.19-.65a6,6,0,0,1,.24-1,7.15,7.15,0,0,0,.23-1,.38.38,0,0,0-.15-.34.48.48,0,0,1-.18-.35c0-.21,0-.34,0-.39a.11.11,0,0,0-.1-.07.23.23,0,0,1-.13-.08l-.09-.13a.5.5,0,0,0-.1-.13,1,1,0,0,1-.22-.05l-.15-.09a3.27,3.27,0,0,0-.51-.07.72.72,0,0,1-.24-.09l-.2-.09a1.21,1.21,0,0,0-.79.05,2.92,2.92,0,0,0-.57.37l-.59.47a2.44,2.44,0,0,0-.5.57c-.13.21-.26.42-.4.61-.54,1-1,1.86-1.39,2.71l.35-1.33a4.79,4.79,0,0,1,.16-.7,3.61,3.61,0,0,0,.12-.67.83.83,0,0,0-.42-.85,2.38,2.38,0,0,0-1.09-.28.82.82,0,0,0-.5.37,4.32,4.32,0,0,0-.35.65c-.25.56-.49,1.09-.7,1.61a16.91,16.91,0,0,0-.6,1.66c-.11.43-.2.85-.28,1.26s-.16.84-.24,1.27l-.17.63a1.61,1.61,0,0,0,0,.39l-.06.12-.32.46-.41.61c-.14.21-.29.4-.43.59s-.25.32-.33.41l-.39.56-.23.28a.61.61,0,0,1-.3.2.25.25,0,0,1-.08-.23,1,1,0,0,0,0-.26,3,3,0,0,0,0-.3,1.48,1.48,0,0,1,0-.29.4.4,0,0,1,0-.28.3.3,0,0,0,0-.25l.05-.62.32-1.89a14.24,14.24,0,0,1,.41-1.83c.17-.6.32-1.21.44-1.83a8.5,8.5,0,0,1,.25-.9,5,5,0,0,0,.2-.87l.06-.69a.91.91,0,0,0-.34-.57,2.33,2.33,0,0,0-.67-.38,1.43,1.43,0,0,0-.52-.15.43.43,0,0,0-.41.15.34.34,0,0,0-.19.29.93.93,0,0,1-.08.41.75.75,0,0,1-.09.31,1,1,0,0,0-.13.3,10.47,10.47,0,0,0-.38,1c-.1.34-.22.68-.34,1s-.29.87-.43,1.32a10.59,10.59,0,0,0-.34,1.4c-.07.4-.12.79-.17,1.17-.1.13-.21.26-.3.4-.26.39-.52.8-.76,1.22l-.45.84a4.16,4.16,0,0,0-.62.78,1.4,1.4,0,0,1-.23.35l-.35.37a3.35,3.35,0,0,0-.41.63A1,1,0,0,1,123,30c0-.23,0-.45,0-.64l0-.68a7.53,7.53,0,0,1,.21-1.23,3.71,3.71,0,0,1,.37-1.16,9.93,9.93,0,0,0,.35-1.14,6.38,6.38,0,0,1,.35-1.1.36.36,0,0,1,.08-.23,2,2,0,0,0,.12-.17l.15-.51.14-.3a1.85,1.85,0,0,0,.11-.31,1.18,1.18,0,0,0,0-.31.72.72,0,0,1,0-.31,2.7,2.7,0,0,0,0-1,1.16,1.16,0,0,0-.39-.68,1.76,1.76,0,0,0-.74-.39h-.24a.84.84,0,0,1-.24-.06.16.16,0,0,1-.12-.06.18.18,0,0,0-.15-.06.32.32,0,0,0-.35,0,1.77,1.77,0,0,0-.84-.59,8.55,8.55,0,0,0-1-.29v0a.43.43,0,0,1-.23,0,.16.16,0,0,0-.15,0,.55.55,0,0,0-.35.08l-.33.18-.32.12a1.18,1.18,0,0,0-.29.11,1.26,1.26,0,0,0-.24.19l-.21.19-.58.34-.35.46a1.09,1.09,0,0,1-.19.18l-.26.2c-.1.16-.21.31-.31.46a4.08,4.08,0,0,0-.29.5l-.65,1c-.22.34-.45.7-.66,1.08s-.29.77-.42,1.16a7.71,7.71,0,0,0-.33,1.32c0,.2-.06.41-.09.61-.2.39-.4.78-.6,1.13a13.06,13.06,0,0,1-1.24,1.78,16,16,0,0,1-1.42,1.53c-.08.1-.16.15-.26.11a24.81,24.81,0,0,1,.21-2.55l.39-1.82a.86.86,0,0,1,.05-.27,1.31,1.31,0,0,0,.06-.31c0-.14,0-.28,0-.43s0-.29,0-.4l.07-.8a2.62,2.62,0,0,0-.2-1,2.2,2.2,0,0,0-.47-.75,2.37,2.37,0,0,0-.37-.33,1.33,1.33,0,0,0-.53-.16,2.13,2.13,0,0,0-.41-.11,2.38,2.38,0,0,0-1.08.13,1.62,1.62,0,0,1-.26.22.75.75,0,0,0-.27.26,9.4,9.4,0,0,0-1.3,2.15c-.36.81-.68,1.6-1,2.36a16.85,16.85,0,0,1,.22-2.4,22.61,22.61,0,0,1,.53-2.27c.1-.34.21-.68.35-1s.26-.68.41-1a4.77,4.77,0,0,1,.19-.5c.07-.16.14-.31.19-.44a2.85,2.85,0,0,0,.32-.44l.24-.46a5.44,5.44,0,0,0,.15-.54,5.44,5.44,0,0,1,.15-.54c.18-.31.36-.62.52-.92a6,6,0,0,0,.43-1,3.14,3.14,0,0,1,.21-.49,3.1,3.1,0,0,0,.21-.45,5.43,5.43,0,0,1,.39-1.05,14.17,14.17,0,0,0,.69-2.06,1.59,1.59,0,0,0,.11-.55c0-.18,0-.39.09-.6a2.6,2.6,0,0,0,0-.61.3.3,0,0,1-.09-.18.29.29,0,0,0,0-.18.9.9,0,0,0-.14-.37.71.71,0,0,0-.26-.28.43.43,0,0,0-.25-.09l-.29-.06-.32-.1a1.05,1.05,0,0,0-.26-.05.94.94,0,0,0-.61.18,2.27,2.27,0,0,1-.51.29,5.33,5.33,0,0,1-.4.42,5.23,5.23,0,0,0-.39.42,3.92,3.92,0,0,0-.29.53,2.67,2.67,0,0,1-.32.53,10.06,10.06,0,0,0-.63,1.08,11.1,11.1,0,0,0-.49,1.2,3.61,3.61,0,0,0-.26.61l-.18.57a3.58,3.58,0,0,0-.21.63c0,.22-.11.44-.17.66l-.87,2.55c-.12.43-.23.86-.33,1.31a10.18,10.18,0,0,1-.36,1.31,11.68,11.68,0,0,0-.37,1.34c-.09.45-.18.9-.26,1.36a15.61,15.61,0,0,0-.23,2.19l0,.8s0,0,0,0a2,2,0,0,1-.28.19.84.84,0,0,0-.23.23,4,4,0,0,1-.55.65,3.51,3.51,0,0,0-.54.65,9.54,9.54,0,0,1-1.1.8l-.73.56a2.53,2.53,0,0,1-.73.42,1,1,0,0,1-.48.14l-.59,0a2.25,2.25,0,0,1-1.06-.35,3.61,3.61,0,0,1-1-.84,1.8,1.8,0,0,0-.19-.21c-.08-.08-.1-.09-.07,0l0,0s0,0,0,0,.1,0,.08,0a.13.13,0,0,1-.08,0s0-.05,0-.06,0,0,0-.09a8.31,8.31,0,0,1-1.14-3.39,32.43,32.43,0,0,1-.14-3.24,22.37,22.37,0,0,1,.32-3.22,23.61,23.61,0,0,1,.76-3.12c.26-.76.55-1.54.86-2.32a20.91,20.91,0,0,1,1-2.25c.12-.27.25-.53.38-.78a7,7,0,0,0,.34-.74c.12-.27.22-.53.32-.78s.2-.51.32-.78a7.43,7.43,0,0,1,.4-.73,6.75,6.75,0,0,0,.39-.76,15.05,15.05,0,0,1,.68-1.56,4.88,4.88,0,0,1,1.16-1.46l.26.16a1.42,1.42,0,0,0,.37.16,2.69,2.69,0,0,1,.36.22,1.49,1.49,0,0,1,.28.25.49.49,0,0,1,.08.3,1.64,1.64,0,0,0,0,.4v.7a1.42,1.42,0,0,1,0,.36,2,2,0,0,0-.09.35,1.15,1.15,0,0,0,0,.37.61.61,0,0,1,0,.33c0,.15-.09.3-.14.45a1.25,1.25,0,0,0-.07.4,2.85,2.85,0,0,0-.11.39,1.59,1.59,0,0,1-.1.39,2.43,2.43,0,0,1-.47.86,1.25,1.25,0,0,1-.43.78,1,1,0,0,0-.26.19.54.54,0,0,0-.14.22,1.33,1.33,0,0,0-.1.73,1,1,0,0,0,.49.75.72.72,0,0,0,.63.1,2.29,2.29,0,0,0,.74-.27A1.67,1.67,0,0,0,103,12l.36-.74a5.25,5.25,0,0,0,.34-.56c.08-.18.16-.36.23-.56l.24-1a1.19,1.19,0,0,1,.14-.56,1.37,1.37,0,0,0,.18-.55,3.39,3.39,0,0,0,.1-.52,2.3,2.3,0,0,0,0-.52,2,2,0,0,0-.16-1.07,3.45,3.45,0,0,0,0-.57c0-.19,0-.38-.08-.57a2.19,2.19,0,0,1-.27-.61,4.31,4.31,0,0,0-.19-.61,1.16,1.16,0,0,0-.45-.41,2.11,2.11,0,0,1-.45-.31,2.53,2.53,0,0,1-.33-.16,1.53,1.53,0,0,0-.34-.16,2,2,0,0,0-.55-.14c-.2,0-.4-.06-.6-.1a2,2,0,0,0-.53-.16l-.54-.09A.58.58,0,0,1,99.81,2.11Zm19.13,20.76a1.67,1.67,0,0,1,.11-.34,1.52,1.52,0,0,1,.14-.21l.18-.25a2.68,2.68,0,0,0,.07-.27,1,1,0,0,1,.11-.27,1,1,0,0,1,.31-.43,1.13,1.13,0,0,0,.12-.25.71.71,0,0,1,.13-.22l.37-.35a2.39,2.39,0,0,0,.35-.27.74.74,0,0,1,.41-.12.51.51,0,0,1,.29.11,1,1,0,0,1,.18.17,1.54,1.54,0,0,1,.09.37.87.87,0,0,1,0,.37,1.46,1.46,0,0,1-.14.28,3.37,3.37,0,0,0-.19.32l-1,1.83-1.11,1.82c-.22.4-.46.79-.71,1.16s-.51.75-.8,1.13a2.7,2.7,0,0,0-.2.31,1,1,0,0,1-.19.25,6.44,6.44,0,0,1,.16-1.54,6.84,6.84,0,0,1,.46-1.41,1.34,1.34,0,0,1,.12-.3c.06-.09.11-.19.17-.3a2,2,0,0,0,.13-.34,1.81,1.81,0,0,1,.13-.34,2.15,2.15,0,0,0,.22-.57A.79.79,0,0,0,118.94,22.87Zm-10.28-7.43c.07-.2.13-.41.19-.61l.18-1.41a2.68,2.68,0,0,0,.11-.66,2.57,2.57,0,0,1,.1-.65c.07-.29.13-.58.17-.86a2.61,2.61,0,0,1,.27-.77c0-.09.08-.2.13-.31a.25.25,0,0,1,.47,0,.91.91,0,0,0,.11.16l0,0,.06.07a1.17,1.17,0,0,1,0,.53,2.41,2.41,0,0,0-.08.44.88.88,0,0,0-.1.34,1.86,1.86,0,0,1-.06.34c-.22.66-.48,1.33-.79,2s-.59,1.34-.85,1.95A1.86,1.86,0,0,1,108.66,15.44ZM95.32,29.16h0s0,0,0,0h-.07s0,0,0-.06a.07.07,0,0,1-.06-.07l.06,0C95.28,29.11,95.32,29.14,95.32,29.16Zm-.3-.25a.13.13,0,0,0,0-.08S95,28.83,95,28.91Z"/><path class="cls-7" d="M130,13.66s0,0-.07,0a1.31,1.31,0,0,0-.36.58,3.17,3.17,0,0,0-.17.8,3.63,3.63,0,0,0,0,.81,1.32,1.32,0,0,0,.22.6.59.59,0,0,0,.41.3,1.38,1.38,0,0,0,.64,0,.66.66,0,0,0,.31-.22,2,2,0,0,1,.33-.32l.42-.53a1.57,1.57,0,0,0,.3-.67,1.17,1.17,0,0,0,0-.7.73.73,0,0,0-.38-.27l-.59-.22a3.64,3.64,0,0,0-.47-.18,1.18,1.18,0,0,0-.55,0S130,13.64,130,13.66Z"/></g></g></svg>